<?xml version="1.0" encoding="UTF-8" standalone="no"?>
<!-- Created with Inkscape (http://www.inkscape.org/) -->

<svg
   width="300"
   height="300"
   viewBox="0 0 300 300"
   version="1.1"
   id="svg1"
   xml:space="preserve"
   inkscape:version="1.4.3 (0d15f75042, 2025-12-25)"
   sodipodi:docname="adobe.svg"
   xmlns:inkscape="http://www.inkscape.org/namespaces/inkscape"
   xmlns:sodipodi="http://sodipodi.sourceforge.net/DTD/sodipodi-0.dtd"
   xmlns="http://www.w3.org/2000/svg"
   xmlns:svg="http://www.w3.org/2000/svg"><sodipodi:namedview
     id="namedview1"
     pagecolor="#ffffff"
     bordercolor="#000000"
     borderopacity="0.25"
     inkscape:showpageshadow="2"
     inkscape:pageopacity="0.0"
     inkscape:pagecheckerboard="0"
     inkscape:deskcolor="#d1d1d1"
     inkscape:document-units="px"
     inkscape:zoom="1.6192745"
     inkscape:cx="163.03598"
     inkscape:cy="126.90869"
     inkscape:window-width="1588"
     inkscape:window-height="852"
     inkscape:window-x="0"
     inkscape:window-y="0"
     inkscape:window-maximized="1"
     inkscape:current-layer="layer1" /><defs
     id="defs1" /><g
     inkscape:label="Layer 1"
     inkscape:groupmode="layer"
     id="layer1"><rect
       style="display:none;fill:#000000;fill-opacity:1;stroke-width:5;stroke-linecap:round;stroke-dashoffset:74;paint-order:stroke fill markers"
       id="rect1"
       width="300"
       height="300"
       x="0"
       y="0"
       ry="32.113148" /><path
       style="display:inline;fill:#ffffff;fill-opacity:1;stroke-width:1"
       d="m 62.920952,258.58768 c -15.242197,-1.66327 -35.709581,-6.81463 -41.151725,-10.35736 -3.445778,-2.24318 -3.595763,-3.27252 -3.595763,-24.67772 0,-12.2853 0.617865,-22.33692 1.373054,-22.33692 0.755157,0 6.81834,2.51589 13.473712,5.59084 39.270344,18.14405 84.23702,13.43736 84.23702,-8.81712 0,-13.44477 -4.85342,-17.5965 -38.160585,-32.64371 -47.447256,-21.43523 -59.016671,-33.63582 -60.605761,-63.9119 -2.138352,-40.741064 24.476284,-65.91045 72.9775,-69.014615 27.242876,-1.743597 60.103186,4.226075 61.844106,11.235093 1.46945,5.916121 0.008,40.123291 -1.69558,39.740423 -0.87895,-0.197355 -6.63222,-2.240403 -12.785,-4.540215 -29.81715,-11.145123 -69.121529,-6.036446 -74.301007,9.657477 -4.172603,12.643187 3.754576,19.826317 38.514257,34.899057 48.06701,20.84321 61.35674,35.96476 61.35674,69.81405 0,46.11278 -40.25924,72.04327 -101.480968,65.36262 z m 163.952888,-2.25733 c -10.1614,-3.87986 -17.00741,-10.17588 -21.51324,-19.78498 l -4.20178,-8.96063 -0.5023,-49.94142 -0.5023,-49.94142 H 189.0209 177.88763 l 0.44871,-19.57705 0.44873,-19.577006 10.67583,-0.47003 c 12.43367,-0.547385 11.67529,0.838736 13.39798,-24.48837 1.34648,-19.795847 0.3947,-18.850581 21.64056,-21.491714 28.11074,-3.494519 25.03592,-6.255978 24.13924,21.679139 l -0.76944,23.971912 h 16.16794 c 19.16069,0 18.2094,-1.260018 17.49514,23.172809 l -0.46722,15.98126 -16.3808,0.45545 -16.3808,0.45542 v 40.59227 c 0,51.82983 0.28036,52.54055 20.77566,52.70361 l 10.38781,0.0826 v 15.95972 15.95972 l -4.79437,2.32427 c -7.03495,3.41046 -39.6127,4.02001 -47.79876,0.8944 z"
       id="path1"
       sodipodi:nodetypes="sssssssssssssssssscccccccsssscsscccsscccsss" /></g></svg>
