<?xml version="1.0" encoding="UTF-8" standalone="no"?>
<svg
   class="MuiSvgIcon-root MuiSvgIcon-fontSizeMedium mui-vncdux-sstkLogo"
   focusable="false"
   color="#ffffff"
   role="img"
   viewBox="0 0 30 30"
   data-testid="shutterstock-logo-pos.svgIcon"
   data-darkreader-inline-color=""
   version="1.1"
   id="svg16"
   width="30"
   height="30"
   xmlns="http://www.w3.org/2000/svg"
   xmlns:svg="http://www.w3.org/2000/svg"
   xmlns:rdf="http://www.w3.org/1999/02/22-rdf-syntax-ns#"
   xmlns:cc="http://creativecommons.org/ns#"
   xmlns:dc="http://purl.org/dc/elements/1.1/">
  <defs
     id="defs16" />
  <rect
     style="fill:#dc5938;fill-opacity:1;stroke-width:5;stroke-linecap:round;stroke-dashoffset:74;paint-order:stroke fill markers"
     id="rect16"
     width="30"
     height="30"
     x="0"
     y="0"
     ry="3.553709" />
  <g
     id="g16"
     transform="translate(-125.20536,0.05449793)"
     style="fill:#fff8f7;fill-opacity:1">
    <path
       d="m 140.43448,7.8956343 c 4.06336,0 6.43706,1.72444 6.67876,4.5417797 v 0.4376 h -3.0688 c -0.0989,-1.7663 -1.53571,-2.3796 -3.59622,-2.3796 -2.0605,0 -3.17043,0.629 -3.17043,1.7821 0,1.1531 0.90936,1.5489 2.23084,1.7533 l 2.81328,0.4377 c 2.98363,0.4664 4.98913,1.7087 4.98913,4.4552 0,2.7466 -2.1456,4.7304 -6.4672,4.7304 -4.32157,0 -6.8189,-1.9864 -7.03319,-4.6596 v -0.4377 h 3.12647 c 0.14286,1.7664 1.74731,2.4977 3.90946,2.4977 2.16216,0 3.25556,-0.7601 3.25556,-1.9421 0,-1.1819 -0.92306,-1.6511 -2.53026,-1.8974 l -2.81326,-0.4377 c -2.81604,-0.4403 -4.67873,-1.6956 -4.67873,-4.429 0,-2.7334797 2.30227,-4.4526797 6.35459,-4.4526797 z"
       id="path1"
       style="fill:#fff8f7;fill-opacity:1" />
    <path
       d="m 145.901,5.94205 c 0.51,0 0.758,-0.60538 0.376,-0.93035 -1.456,-1.23438 -3.426,-1.94984 -5.69,-1.94984 -2.264,0 -4.231,0.71546 -5.69,1.94984 -0.381,0.32497 -0.134,0.93035 0.377,0.93035 z"
       id="path13"
       style="fill:#fff8f7;fill-opacity:1" />
    <path
       d="m 144.913,2.1063 c 0.415,0 0.619,-0.26208 0.308,-0.4036 -1.187,-0.53725 -2.788,-0.846499 -4.632,-0.846499 -1.843,0 -3.445,0.309249 -4.632,0.846499 -0.31,0.14152 -0.11,0.4036 0.308,0.4036 z"
       id="path14"
       style="fill:#fff8f7;fill-opacity:1" />
    <path
       d="m 135.277,24.1482 c -0.511,0 -0.758,0.6053 -0.376,0.9303 1.456,1.2344 3.426,1.9499 5.69,1.9499 2.264,0 4.231,-0.7155 5.69,-1.9499 0.382,-0.325 0.134,-0.9303 -0.377,-0.9303 z"
       id="path15"
       style="fill:#fff8f7;fill-opacity:1" />
    <path
       d="m 136.266,27.9894 c -0.415,0 -0.618,0.262 -0.308,0.4036 1.187,0.5373 2.789,0.8464 4.632,0.8464 1.843,0 3.445,-0.3091 4.632,-0.8464 0.311,-0.1416 0.11,-0.4036 -0.308,-0.4036 z"
       id="path16"
       style="fill:#fff8f7;fill-opacity:1" />
  </g>
  <title
     id="title16">Shutterstock</title>
  <metadata
     id="metadata16">
    <rdf:RDF>
      <cc:Work
         rdf:about="">
        <dc:title>Shutterstock</dc:title>
      </cc:Work>
    </rdf:RDF>
  </metadata>
</svg>
